<?xml version="1.0" encoding="UTF-8"?>
<svg id="Layer_1" data-name="Layer 1" xmlns="http://www.w3.org/2000/svg" version="1.1" viewBox="0 0 640 640">
  <defs>
    <style>
      .cls-1, .cls-2, .cls-3, .cls-4 {
        fill: #fff;
      }

      .cls-1, .cls-5, .cls-6 {
        stroke: #000;
        stroke-miterlimit: 10;
      }

      .cls-2 {
        font-family: FZLTZHB--B51-0, 'Lantinghei TC';
        font-size: 21px;
      }

      .cls-2, .cls-7, .cls-3 {
        isolation: isolate;
      }

      .cls-8 {
        fill: none;
      }

      .cls-8, .cls-9, .cls-4 {
        stroke-width: 0px;
      }

      .cls-9 {
        fill: #020101;
      }

      .cls-5, .cls-6 {
        fill: #aa1717;
      }

      .cls-3 {
        font-family: Arial-BoldMT, Arial;
        font-size: 60px;
        font-weight: 700;
      }

      .cls-6 {
        stroke-width: 3px;
      }
    </style>
  </defs>
  <g id="Layer_3" data-name="Layer 3">
    <rect class="cls-1" width="640" height="640"/>
  </g>
  <line class="cls-8" x1="460.17" y1="153.83" x2="461.61" y2="153.83"/>
  <path class="cls-6" d="M557.44,281.55"/>
  <path class="cls-6" d="M37.86,288.2"/>
  <path class="cls-6" d="M547.79,479.67"/>
  <rect class="cls-5" x="68.89" y="140.88" width="502.22" height="344" rx="35.28" ry="35.28"/>
  <rect class="cls-4" x="68.89" y="258.31" width="502.22" height="175.64"/>
  <g class="cls-7">
    <g class="cls-7">
      <text class="cls-3" transform="translate(213.82 215.64)"><tspan x="0" y="0">HELLO</tspan></text>
    </g>
  </g>
  <g class="cls-7">
    <g class="cls-7">
      <text class="cls-2" transform="translate(254.81 241.47)"><tspan x="0" y="0">my name is</tspan></text>
    </g>
  </g>
  <path class="cls-4" d="M106.64,327.36c.14-14.12.29-28.24.43-42.36l-2.95.4c6.36,16.24,13.18,32.29,20.48,48.13,2.1,4.55,4.24,9.09,6.42,13.61.84,1.74,3.43.22,2.59-1.51-7.49-15.55-14.53-31.32-21.09-47.28-1.87-4.56-3.71-9.14-5.51-13.74-.59-1.5-2.93-1.4-2.95.4-.14,14.12-.29,28.24-.43,42.36-.02,1.93,2.98,1.93,3,0h0Z"/>
  <path class="cls-9" d="M104.76,290.2l.06,36,2.95-.4c-1.63-10.7-1.59-21.67.1-32.36l-2.51.66c10.39,10.88,19.95,22.54,28.57,34.88.87,1.24,2.67.76,2.8-.76,1.82-22.89,5.2-45.63,10.12-68.06,1.38-6.31,2.89-12.59,4.51-18.84.48-1.87-2.41-2.67-2.89-.8-5.81,22.4-10.08,45.19-12.8,68.18-.77,6.49-1.41,13-1.93,19.52l2.8-.76c-8.76-12.55-18.47-24.42-29.04-35.49-.72-.75-2.33-.47-2.51.66-1.78,11.27-1.82,22.68-.1,33.96.26,1.7,2.95,1.25,2.95-.4l-.06-36c0-1.93-3-1.93-3,0h-.02,0Z"/>
  <path class="cls-9" d="M150.94,288.35c-2.78,6.42-4.14,13.38-3.75,20.38.16,2.91.34,6.5,2.56,8.69,2.02,1.99,4.94,1.99,7.41.91,2.87-1.25,4.94-3.56,6.73-6.05,1.88-2.62,3.36-5.52,4.45-8.55,1.88-5.23,3.26-12.56-1-17.05-3.53-3.71-11.32-2.47-11.78,3.21-.16,1.92,2.84,1.91,3,0,.12-1.42,1.6-2.15,2.86-2.32,1.68-.23,3.24.38,4.25,1.75,2.77,3.79,1.22,9.61-.21,13.6-.86,2.39-2.03,4.67-3.43,6.79-1.33,2.01-2.85,3.99-4.92,5.26-1.64,1.01-4.02,1.81-5.47.05s-1.37-4.66-1.46-6.76c-.28-6.29.86-12.63,3.36-18.42.76-1.75-1.82-3.28-2.59-1.51h0v.02h0Z"/>
  <path class="cls-9" d="M199.16,289.05c-4.29,4.02-6.14,10.12-5.2,15.88.44,2.69,1.57,5.76,3.63,7.64,2.75,2.51,6.37,1.47,9.13-.43,5.46-3.77,10.15-8.89,13.84-14.37.94-1.39,1.81-2.82,2.62-4.29s1.72-3.16,1.55-4.97c-.26-2.74-2.75-4.44-5.23-5.05-3.45-.84-7.28.05-10.51,1.33-3.77,1.5-7.19,3.68-10.56,5.91-1.6,1.06-.1,3.66,1.51,2.59,4.7-3.11,9.83-6.59,15.61-7.08,1.87-.16,4.68-.07,5.87,1.7.64.95.22,2.01-.24,2.95-.67,1.38-1.48,2.71-2.3,4-2.92,4.62-6.54,8.78-10.7,12.34-1.78,1.52-4.59,4.33-7.18,3.89-2.28-.39-3.38-3.65-3.88-5.57-1.3-5.1.31-10.74,4.15-14.33,1.41-1.32-.71-3.44-2.12-2.12h0v-.02h0Z"/>
  <path class="cls-9" d="M227.11,290.85c0,6.85-.02,13.7-.03,20.56h3c-.27-6.85,1.39-13.66,4.78-19.61,1.67-2.94,3.74-5.64,6.16-8,.32-.31,1.16-1.38,1.64-1.24s1.09,2.17,1.27,2.61c.7,1.74,1.28,3.52,1.74,5.33,1.1,4.32,1.45,8.75,1.14,13.19-.14,1.93,2.86,1.92,3,0,.32-4.54-.06-9.13-1.14-13.55-.53-2.18-1.24-4.32-2.11-6.39-.72-1.72-1.54-4.07-3.72-4.24-1.98-.15-3.55,1.73-4.79,3.02-1.37,1.43-2.63,2.97-3.77,4.58-2.33,3.29-4.13,6.97-5.37,10.8-1.4,4.35-2.03,8.95-1.85,13.51.08,1.92,3,1.94,3,0,0-6.85.02-13.7.03-20.56,0-1.93-3-1.93-3,0h.02,0Z"/>
  <path class="cls-9" d="M252.28,295.34c4.06-.02,8.12,0,12.17-.06,2.78-.04,6.35-1.02,6.34-4.45s-3.46-5.3-6.16-6.24c-3.52-1.23-7.38-1.66-11.08-1.24-1.58.18-3.23.5-4.15,1.95s-.98,3.63-1.22,5.32c-.58,4.04-.98,8.14-.56,12.22.68,6.53,3.55,13.2,9.32,16.76,5.44,3.36,13.53,2.87,17.64-2.38,1.18-1.5-.93-3.64-2.12-2.12-2.84,3.62-7.87,4.45-12.06,2.88-4.67-1.74-7.66-6.45-8.98-11.05-1.73-6.04-1.07-12.95.21-19.03.31-1.49,1.2-1.5,2.59-1.62,1.54-.13,3.1-.13,4.64.05,2.58.29,5.84.91,7.83,2.71.77.69,1.68,1.91.55,2.72-1.03.73-2.72.52-3.9.53l-11.05.05c-1.93,0-1.93,3.01,0,3h-.01Z"/>
  <path class="cls-9" d="M315.09,295.66c-2.22-1.31-4.42-.05-5.79,1.83-1.62,2.23-1.88,5.03-2.13,7.69-.15,1.52-.22,3.05-.22,4.57,0,1.41-.1,3.01.48,4.32,1.2,2.67,4.28,2.22,6.52,1.37,3.07-1.17,5.88-2.79,8.46-4.81.64-.5.52-1.6,0-2.12-.63-.63-1.48-.5-2.12,0-2.11,1.65-4.5,3.02-7,3.98-.68.26-2.13,1-2.88.6s-.46-2.33-.46-3.01c-.02-2.85.04-5.96.79-8.72.25-.9.66-1.81,1.28-2.52.49-.56.95-.96,1.56-.6,1.67.98,3.18-1.61,1.51-2.59h0Z"/>
  <path class="cls-9" d="M322.8,298.75l.05,9.2.02,4.23c0,1.38.16,2.87-.12,4.23-.51,2.46-3.75,3.55-5.7,4.64-2.55,1.42-5.1,2.84-7.66,4.26-8.5,4.73-18.71,11.53-28.85,8.06-4.29-1.47-7.98-4.74-8.77-9.35-.32-1.9-3.22-1.09-2.89.8.79,4.62,4.17,8.32,8.28,10.36,4.72,2.35,9.93,2.59,15.01,1.38,5.78-1.37,11.03-4.37,16.18-7.24,2.98-1.66,5.95-3.31,8.93-4.97,2.33-1.3,5.34-2.45,7.09-4.55,2.15-2.58,1.5-6.49,1.49-9.61l-.06-11.44c0-1.93-3.01-1.93-3,0h0Z"/>
  <path class="cls-9" d="M333.68,301.71v38.48c0,1.93,3,1.93,3,0v-38.48c0-1.93-3-1.93-3,0h0Z"/>
  <path class="cls-9" d="M338.14,297.29c1.93,0,1.93-3,0-3s-1.93,3,0,3h0Z"/>
  <path class="cls-9" d="M337.9,306.06c6.96,4.15,13.26,9.25,18.78,15.17.86.93,2.63.23,2.56-1.06-.49-9.51.77-18.97,3.74-28.02.6-1.84-2.29-2.63-2.89-.8-3.04,9.27-4.35,19.07-3.85,28.82l2.56-1.06c-5.69-6.1-12.23-11.37-19.39-15.64-1.66-.99-3.17,1.6-1.51,2.59h0Z"/>
  <path class="cls-9" d="M371.06,314.12c5.15,4.18,12.82-1.56,10.72-7.72-1.08-3.17-4.05-5.55-7.36-5.96s-6.91,1.22-9.25,3.71c-5.26,5.59-4.96,14.85-2.89,21.76,1,3.35,2.72,6.63,5.46,8.89,3.04,2.51,6.9,3.65,10.76,4.1,8.3.98,16.8-1.8,23.04-7.32,1.45-1.28-.68-3.4-2.12-2.12-4.4,3.89-10.12,6.23-15.99,6.58s-12.65-.95-16.06-6.13c-3.11-4.71-4.08-11.58-3.1-17.08.52-2.92,1.77-5.7,4.12-7.59,2-1.61,4.83-2.5,7.29-1.4s4.46,3.99,3.06,6.52c-.96,1.75-3.8,3.04-5.54,1.63-1.49-1.21-3.62.9-2.12,2.12h-.02Z"/>
  <path class="cls-9" d="M409.55,298.5c-1.01-2.48-4.19-3.03-6.18-1.29-2.38,2.08-2.13,6.11-2.38,8.96s-1.25,7.1,2.66,7.79c1.58.28,3.28.1,4.87.1h26.13c.73,0,2.17-.24,2.8.26.87.7-.17,2.26-.66,2.91-.99,1.31-2.41,2.41-3.68,3.44-2.4,1.94-5.05,3.58-7.81,4.94-6.52,3.2-13.82,4.63-21.07,4.18-1.93-.12-1.92,2.88,0,3,12.25.76,24.69-3.77,33.56-12.26,1.77-1.69,3.7-4.38,2.73-6.95-1.23-3.25-5.61-2.52-8.34-2.52-7.48,0-14.96.01-22.43.02h-3.2c-.67,0-1.78.2-2.44-.06-.76-.3-.44-1.27-.38-1.97.08-.96.17-1.91.26-2.87.16-1.77.11-3.77.65-5.47.17-.54.45-1.2,1.02-1.43.16-.06.91-.2,1,.03.72,1.77,3.62.99,2.89-.8h0Z"/>
  <path class="cls-9" d="M495.63,311.86c-2.07-2.15-5.29-2.63-8.07-1.71-3.1,1.03-5.29,3.62-6.75,6.44-3.45,6.65-5.06,14.51-5.33,21.95-.12,3.21.11,6.72,2.95,8.77,2.31,1.66,5.45,1.53,8.06.8,5.81-1.62,10.93-6.27,14.53-10.95,4.34-5.65,6.94-12.48,7.41-19.58h-3c.27,8.25,2.76,16.31,7.25,23.24,1.05,1.61,3.64.11,2.59-1.51-4.21-6.5-6.59-13.99-6.84-21.73-.06-1.94-2.87-1.92-3,0-.7,10.51-6.79,20.5-15.85,25.9-3.55,2.12-10.43,4.12-11.08-1.96-.33-3.09.11-6.44.61-9.49.53-3.21,1.33-6.37,2.41-9.44s2.28-6.22,4.72-8.31c1.99-1.7,5.28-2.35,7.26-.29,1.34,1.4,3.46-.73,2.12-2.12h0Z"/>
  <path class="cls-9" d="M202.8,350.82c-.46,26.86-.62,53.72-.49,80.58.03,7.49.1,14.99.18,22.48.02,1.64,2.48,1.64,2.46,0-.3-26.86-.3-53.72,0-80.59.08-7.49.19-14.99.31-22.48.02-1.64-2.44-1.64-2.46,0h0Z"/>
  <path class="cls-9" d="M205.35,356.54c20.6-4.66,41.49-7.98,62.52-9.87,5.98-.54,11.96-.96,17.96-1.28,1.92-.1,1.93-3.1,0-3-21.35,1.13-42.63,3.66-63.65,7.61-5.9,1.11-11.78,2.33-17.63,3.65-1.88.43-1.09,3.32.8,2.89h0Z"/>
  <path class="cls-9" d="M204.93,393.99h83.87c1.93,0,1.93-3,0-3h-83.87c-1.93,0-1.93,3,0,3h0Z"/>
  <path class="cls-9" d="M307.96,357.94c.04,14.57.07,29.14.11,43.72.02,7.29.04,14.57.05,21.86.01,5.89-.24,12.69,3.46,17.67,3.28,4.41,9.35,6.36,13.62,2.09,1.95-1.95,3.07-4.55,4.17-7.03,1.37-3.09,2.69-6.21,3.95-9.34,5.06-12.57,9.2-25.51,12.39-38.67,1.79-7.37,3.27-14.82,4.46-22.32s2.72-15.07.47-22.26c-.57-1.84-3.47-1.05-2.89.8,1.91,6.1.75,12.65-.19,18.83s-2.14,12.68-3.53,18.95c-2.75,12.39-6.35,24.6-10.75,36.51-2.22,5.99-4.6,11.95-7.28,17.75-.97,2.09-2.13,4.5-4.22,5.68-2.27,1.27-4.83.24-6.59-1.42-4.28-4.05-4.04-10.82-4.05-16.24-.02-6.79-.03-13.58-.05-20.37-.04-15.4-.08-30.8-.11-46.2,0-1.93-3-1.93-3,0h-.02Z"/>
  <path class="cls-9" d="M399.61,357.85c-5.08-.79-10.82-1.56-15.47,1.17-4.75,2.79-6.75,8.56-8.74,13.38-4.6,11.12-7.8,22.82-9.53,34.72-.87,6.01-1.4,12.07-1.53,18.15-.12,5.68-.18,11.59.93,17.19,1,5.03,3.49,9.44,7.69,12.45,3.75,2.69,8.47,4.01,13.06,4.05,11.6.09,21.12-8.32,26.93-17.67,1.02-1.64-1.57-3.15-2.59-1.51-4.75,7.65-12.22,14.91-21.56,16.03-4.07.49-8.36-.17-12.01-2.07-4.07-2.12-6.88-5.6-8.14-10.02-1.43-5.03-1.35-10.52-1.34-15.7.01-5.48.34-10.97.97-16.41,1.29-11.06,3.9-21.98,7.69-32.44,1.07-2.96,2.24-5.88,3.51-8.76,1.09-2.46,2.19-5.09,4.06-7.09,3.91-4.18,10.17-3.38,15.28-2.58,1.89.29,2.7-2.6.8-2.89h0Z"/>
  <path class="cls-9" d="M427.42,363.87v89.79c0,1.93,3,1.93,3,0v-89.79c0-1.93-3-1.93-3,0h0Z"/>
  <path class="cls-9" d="M430.7,408.1c14.38-15.13,30.72-28.35,48.54-39.22,5.07-3.09,10.25-5.99,15.53-8.69,1.72-.88.2-3.47-1.51-2.59-18.8,9.63-36.31,21.75-51.96,35.94-4.4,3.99-8.64,8.14-12.73,12.44-1.33,1.4.79,3.52,2.12,2.12h.01Z"/>
  <path class="cls-9" d="M451.98,389.01c7.62,18.5,16.02,36.67,25.22,54.44.89,1.72,3.48.2,2.59-1.51-9.07-17.54-17.4-35.46-24.92-53.72-.72-1.76-3.63-.99-2.89.8h0Z"/>
</svg>